<svg xmlns="http://www.w3.org/2000/svg" width="64" height="64"><path fill="#010101" d="M51.149 14.937c-.013-.017-.032-.024-.046-.04-2.753-3.499-7.015-5.758-11.803-5.758-2.402 0-4.666.581-6.682 1.587-.035.013-.072.011-.107.029-.03.015-.049.042-.077.06-4.839 2.499-8.16 7.54-8.16 13.35 0 8.133 6.498 14.761 14.572 15.004a.969.969 0 00.385.081.969.969 0 00.358-.072c8.151-.157 14.737-6.824 14.737-15.012 0-3.449-1.181-6.621-3.143-9.161-.014-.022-.017-.047-.034-.068zm-2.159.464l-9.417 7.4-5.316-10.71a13.017 13.017 0 015.043-1.013c3.843.001 7.294 1.676 9.69 4.323zm-22.778 8.765c0-4.739 2.541-8.885 6.323-11.182l5.726 11.535V37.2c-6.732-.533-12.049-6.169-12.049-13.034zM40.2 37.207V24.774l9.99-7.851a13.006 13.006 0 012.196 7.242c.001 6.913-5.39 12.576-12.186 13.042z"/><path fill="#010101" d="M57.616 6.586a3.298 3.298 0 003.293-3.293C60.909 1.478 59.432 0 57.616 0s-3.293 1.478-3.293 3.293c0 .464.099.904.271 1.304l-4.19 3.6a19.34 19.34 0 00-11.104-3.5c-10.407 0-18.908 8.215-19.419 18.498l-3.606-.006c-.394-1.377-1.65-2.395-3.152-2.395a3.297 3.297 0 00-3.293 3.293c0 .963.423 1.823 1.084 2.426l-4.139 6.983c-.13-.015-.257-.039-.391-.039-1.815 0-3.293 1.477-3.293 3.293s1.478 3.293 3.293 3.293a3.297 3.297 0 003.294-3.293 3.27 3.27 0 00-1.122-2.456l4.125-6.958c.146.02.29.045.441.045 1.45 0 2.67-.948 3.108-2.252l3.65.006c.433 8.729 6.626 15.951 14.86 17.938l-.777 14.357c-.115 2.038.449 3.824 1.59 5.031.952 1.007 2.246 1.539 3.743 1.539 1.502 0 2.802-.535 3.758-1.547 1.142-1.208 1.708-2.992 1.594-5.021l-.787-14.36c8.538-2.061 14.907-9.745 14.907-18.906 0-5.898-2.646-11.182-6.803-14.755l3.895-3.343a3.259 3.259 0 001.756.518zM6.384 38.104a1.355 1.355 0 111.354-1.354c0 .747-.607 1.354-1.354 1.354zm6.738-12.662a1.356 1.356 0 01-1.354-1.354 1.355 1.355 0 111.354 1.354zm29.589 32.097c.083 1.471-.306 2.776-1.066 3.581-.59.624-1.38.94-2.349.94-.964 0-1.749-.313-2.334-.932-.759-.803-1.146-2.111-1.063-3.591l.764-14.104c.864.118 1.74.2 2.637.2s1.773-.082 2.638-.2l.773 14.106zm14.117-33.373c0 9.666-7.863 17.529-17.528 17.529-9.664 0-17.526-7.861-17.528-17.525v-.003c0-9.665 7.862-17.529 17.528-17.529 9.665-.001 17.528 7.862 17.528 17.528zm.788-22.227a1.355 1.355 0 11-1.354 1.354c0-.746.608-1.354 1.354-1.354z"/></svg>