<svg xmlns="http://www.w3.org/2000/svg" viewBox="0 0 64 64"><g data-name="25"><path d="M11.5 28.1a1 1 0 001-1v-2.2a1 1 0 00-2 0v2.2a1 1 0 001 1z"/><path d="M53.7 14.5a1 1 0 00-1-1L44.1 3.4a1 1 0 00-.8-.4H17.1a6.6 6.6 0 00-6.6 6.6v12.5a1 1 0 002 0V9.6A4.6 4.6 0 0117.1 5h25.2v9.4a1 1 0 001 1h8.2v39a4.6 4.6 0 01-4.6 4.6H17.1a4.6 4.6 0 01-4.6-4.6V30.3a1 1 0 00-2 0v24.1a6.6 6.6 0 006.6 6.6h29.8a6.6 6.6 0 006.6-6.6V15a1 1 0 00.2-.5zm-9.4-7.7l5.7 6.7h-5.7z"/><path d="M26.2 14.8h-8.4a1 1 0 00-1 1v9.7a1 1 0 001 1h8.3a1 1 0 001-1v-9.7a1 1 0 00-.9-1zm-1 9.7h-6.4v-7.7h6.3zm20.9 7.8H26.8a1 1 0 000 2h19.3a1 1 0 000-2zm-28.2 2h5.8a1 1 0 000-2h-5.8a1 1 0 000 2zm28.2 4h-8.8a1 1 0 000 2h8.8a1 1 0 000-2zm-28.2 2h16.2a1 1 0 000-2H17.9a1 1 0 000 2zm28.2 4H31.3a1 1 0 100 2h14.8a1 1 0 000-2zm-28.2 2h10a1 1 0 000-2h-10a1 1 0 000 2zm0 6h28.2a1 1 0 000-2H17.9a1 1 0 000 2z"/></g></svg>