<svg xmlns="http://www.w3.org/2000/svg" width="64" height="64" enable-background="new 0 0 64 64" viewBox="0 0 64 64"><path fill="#010101" d="M51.149,14.937c-0.013-0.017-0.032-0.024-0.046-0.04C48.35,11.398,44.088,9.139,39.3,9.139
		c-2.402,0-4.666,0.581-6.682,1.587c-0.035,0.013-0.072,0.011-0.107,0.029c-0.03,0.015-0.049,0.042-0.077,0.06
		c-4.839,2.499-8.16,7.54-8.16,13.35c0,8.133,6.498,14.761,14.572,15.004c0.118,0.051,0.248,0.081,0.385,0.081
		c0.127,0,0.247-0.028,0.358-0.072c8.151-0.157,14.737-6.824,14.737-15.012c0-3.449-1.181-6.621-3.143-9.161
		C51.169,14.983,51.166,14.958,51.149,14.937z M48.99,15.401l-9.417,7.4l-5.316-10.71c1.554-0.651,3.256-1.013,5.043-1.013
		C43.143,11.079,46.594,12.754,48.99,15.401z M26.212,24.166c0-4.739,2.541-8.885,6.323-11.182l5.726,11.535V37.2
		C31.529,36.667,26.212,31.031,26.212,24.166z M40.2,37.207V24.774l9.99-7.851c1.385,2.076,2.196,4.565,2.196,7.242
		C52.387,31.078,46.996,36.741,40.2,37.207z"/><path fill="#010101" d="M57.616,6.586c1.815,0,3.293-1.478,3.293-3.293C60.909,1.478,59.432,0,57.616,0s-3.293,1.478-3.293,3.293
		c0,0.464,0.099,0.904,0.271,1.304l-4.19,3.6c-3.152-2.2-6.978-3.5-11.104-3.5c-10.407,0-18.908,8.215-19.419,18.498l-3.606-0.006
		c-0.394-1.377-1.65-2.395-3.152-2.395c-1.816,0-3.293,1.478-3.293,3.293c0,0.963,0.423,1.823,1.084,2.426l-4.139,6.983
		c-0.13-0.015-0.257-0.039-0.391-0.039c-1.815,0-3.293,1.477-3.293,3.293s1.478,3.293,3.293,3.293c1.816,0,3.294-1.477,3.294-3.293
		c0-0.98-0.439-1.852-1.122-2.456l4.125-6.958c0.146,0.02,0.29,0.045,0.441,0.045c1.45,0,2.67-0.948,3.108-2.252l3.65,0.006
		c0.433,8.729,6.626,15.951,14.86,17.938L33.963,57.43c-0.115,2.038,0.449,3.824,1.59,5.031C36.505,63.468,37.799,64,39.296,64
		c1.502,0,2.802-0.535,3.758-1.547c1.142-1.208,1.708-2.992,1.594-5.021l-0.787-14.36c8.538-2.061,14.907-9.745,14.907-18.906
		c0-5.898-2.646-11.182-6.803-14.755l3.895-3.343C56.369,6.392,56.969,6.586,57.616,6.586z M6.384,38.104
		c-0.746,0-1.354-0.607-1.354-1.354s0.607-1.354,1.354-1.354c0.747,0,1.354,0.607,1.354,1.354S7.131,38.104,6.384,38.104z
		 M13.122,25.442c-0.746,0-1.354-0.607-1.354-1.354c0-0.746,0.607-1.354,1.354-1.354s1.354,0.607,1.354,1.354
		C14.476,24.834,13.868,25.442,13.122,25.442z M42.711,57.539c0.083,1.471-0.306,2.776-1.066,3.581
		c-0.59,0.624-1.38,0.94-2.349,0.94c-0.964,0-1.749-0.313-2.334-0.932c-0.759-0.803-1.146-2.111-1.063-3.591l0.764-14.104
		c0.864,0.118,1.74,0.2,2.637,0.2s1.773-0.082,2.638-0.2L42.711,57.539z M56.828,24.166c0,9.666-7.863,17.529-17.528,17.529
		c-9.664,0-17.526-7.861-17.528-17.525c0,0,0-0.001,0-0.001s0-0.001,0-0.002l0,0c0-9.665,7.862-17.529,17.528-17.529
		C48.965,6.637,56.828,14.5,56.828,24.166z M57.616,1.939c0.746,0,1.354,0.607,1.354,1.354s-0.607,1.354-1.354,1.354
		s-1.354-0.608-1.354-1.354S56.87,1.939,57.616,1.939z"/></svg>