<svg xmlns="http://www.w3.org/2000/svg" viewBox="0 0 64 64"><g data-name="25"><path d="M11.5,28.1a1,1,0,0,0,1-1V24.9a1,1,0,0,0-2,0v2.2A1,1,0,0,0,11.5,28.1Z"/><path d="M53.7,14.5a1,1,0,0,0-1-1L44.1,3.4a1,1,0,0,0-.8-.4H17.1a6.6,6.6,0,0,0-6.6,6.6V22.1a1,1,0,0,0,2,0V9.6a4.6,4.6,0,0,1,4.6-4.6H42.3v9.4a1,1,0,0,0,1,1h8.2V54.4a4.6,4.6,0,0,1-4.6,4.6H17.1a4.6,4.6,0,0,1-4.6-4.6V30.3a1,1,0,0,0-2,0V54.4a6.6,6.6,0,0,0,6.6,6.6H46.9a6.6,6.6,0,0,0,6.6-6.6V15A1,1,0,0,0,53.7,14.5ZM44.3,6.8l5.7,6.7H44.3Z"/><path d="M26.2 14.8H17.8a1 1 0 0 0-1 1v9.7a1 1 0 0 0 1 1h8.3a1 1 0 0 0 1-1V15.8A1 1 0 0 0 26.2 14.8zm-1 9.7H18.8V16.8h6.3zM46.1 32.3H26.8a1 1 0 0 0 0 2H46.1a1 1 0 0 0 0-2zM17.9 34.3h5.8a1 1 0 0 0 0-2H17.9a1 1 0 0 0 0 2zM46.1 38.3H37.3a1 1 0 0 0 0 2h8.8a1 1 0 0 0 0-2zM17.9 40.3H34.1a1 1 0 0 0 0-2H17.9a1 1 0 0 0 0 2zM46.1 44.3H31.3a1 1 0 1 0 0 2H46.1a1 1 0 0 0 0-2zM17.9 46.3h10a1 1 0 0 0 0-2h-10a1 1 0 0 0 0 2zM17.9 52.3H46.1a1 1 0 0 0 0-2H17.9a1 1 0 0 0 0 2z"/></g></svg>