<svg xmlns="http://www.w3.org/2000/svg" enable-background="new 0 0 100 100" viewBox="0 0 100 100"><path d="M93,48.627h-0.5V34.968c0-4.263-3.157-7.792-7.254-8.398v-3.073c0-4.687-3.813-8.5-8.5-8.5H72.98l-1.983-5.285
		c-0.281-0.75-1.104-1.147-1.864-0.901l-19.201,6.186H10.735c-3.989,0-7.235,3.246-7.235,7.235V82.76c0,4.687,3.813,8.5,8.5,8.5h72
		c4.687,0,8.5-3.813,8.5-8.5V69.101H93c1.93,0,3.5-1.57,3.5-3.5V52.127C96.5,50.198,94.93,48.627,93,48.627z M74.106,17.998h2.64
		c3.032,0,5.5,2.467,5.5,5.5v2.971h-4.961l-0.299-0.797L74.106,17.998z M69.776,14.998L69.776,14.998l2.437,6.494l1.868,4.977
		H24.109l44.582-14.362L69.776,14.998z M10.735,17.998h29.884l-18.84,6.07l-7.453,2.401h-3.591c-2.335,0-4.235-1.9-4.235-4.235
		S8.4,17.998,10.735,17.998z M89.5,82.76c0,3.033-2.468,5.5-5.5,5.5H12c-3.032,0-5.5-2.467-5.5-5.5V28.096
		c0.021,0.016,0.046,0.026,0.068,0.042c0.262,0.185,0.535,0.354,0.821,0.504c0.053,0.028,0.109,0.052,0.163,0.079
		c0.265,0.131,0.538,0.246,0.82,0.344c0.048,0.017,0.094,0.036,0.142,0.052c0.312,0.101,0.633,0.177,0.962,0.235
		c0.073,0.013,0.147,0.023,0.221,0.034c0.34,0.049,0.685,0.083,1.038,0.083h3.826h0.235h60.41h1.039H84c3.032,0,5.5,2.467,5.5,5.5
		v13.659h-9.938c-4.687,0-8.5,3.813-8.5,8.5v3.474c0,4.687,3.813,8.5,8.5,8.5H89.5V82.76z M93.5,65.601c0,0.276-0.225,0.5-0.5,0.5
		h-0.5H79.562c-3.032,0-5.5-2.467-5.5-5.5v-3.474c0-3.033,2.468-5.5,5.5-5.5H92.5H93c0.275,0,0.5,0.224,0.5,0.5V65.601z"/><path d="M83.449,54.522c-2.395,0-4.343,1.948-4.343,4.342c0,2.395,1.948,4.342,4.343,4.342s4.342-1.948,4.342-4.342
		C87.791,56.47,85.844,54.522,83.449,54.522z M83.449,60.207c-0.74,0-1.343-0.602-1.343-1.342c0-0.74,0.603-1.342,1.343-1.342
		s1.342,0.602,1.342,1.342C84.791,59.604,84.189,60.207,83.449,60.207z"/></svg>